<svg width="102" height="25" viewBox="0 0 102 25" fill="none" xmlns="http://www.w3.org/2000/svg">
<path d="M9.768 0.168001C11.864 0.168001 13.36 0.696001 14.256 1.752C14.912 2.552 15.24 3.552 15.24 4.752C15.24 5.184 15.2 5.64 15.12 6.12L14.184 11.472C13.864 13.28 13.08 14.728 11.832 15.816C10.584 16.904 8.968 17.448 6.984 17.448H0L3.048 0.168001H9.768ZM8.256 3.912H6.696L4.992 13.704H7.272C8.024 13.704 8.608 13.504 9.024 13.104C9.456 12.688 9.752 12.016 9.912 11.088L10.608 7.152C10.672 6.8 10.704 6.48 10.704 6.192C10.704 4.672 9.888 3.912 8.256 3.912Z" fill="#302F32"/>
<path d="M27.3827 13.752C27.3827 14.168 27.5907 14.376 28.0067 14.376C28.4387 14.376 28.7987 14.296 29.0867 14.136L28.9667 16.848C28.1987 17.472 27.3347 17.784 26.3747 17.784C24.6147 17.784 23.6387 17.144 23.4467 15.864C22.6467 17.144 21.4707 17.784 19.9187 17.784C17.2947 17.784 15.9827 16.656 15.9827 14.4C15.9827 14.016 16.0227 13.592 16.1027 13.128L16.6067 10.32C16.8627 8.88 17.4467 7.736 18.3587 6.888C19.2867 6.024 20.4867 5.592 21.9587 5.592C23.4467 5.592 24.4547 5.936 24.9827 6.624L25.1027 5.904H28.7507L27.4067 13.464C27.3907 13.56 27.3827 13.656 27.3827 13.752ZM20.2787 12.6C20.2467 12.744 20.2307 12.944 20.2307 13.2C20.2307 13.456 20.3507 13.712 20.5907 13.968C20.8307 14.208 21.2307 14.328 21.7907 14.328C22.3667 14.328 22.8627 14.104 23.2787 13.656L23.9987 9.624C23.8227 9.224 23.4067 9.024 22.7507 9.024C21.5187 9.024 20.7987 9.616 20.5907 10.8L20.2787 12.6Z" fill="#302F32"/>
<path d="M38.2922 10.08C38.2922 9.392 37.9562 9.048 37.2842 9.048C36.6282 9.048 36.0842 9.296 35.6522 9.792L34.3082 17.448H30.2282L32.2682 5.904H36.0602L35.7962 7.32C36.7402 6.152 37.9322 5.568 39.3722 5.568C40.8122 5.568 41.7482 5.92 42.1802 6.624C42.4522 7.072 42.5882 7.584 42.5882 8.16C42.5882 8.736 42.5482 9.272 42.4682 9.768L41.8202 13.464C41.8042 13.56 41.7962 13.648 41.7962 13.728C41.7962 14.16 42.0362 14.376 42.5162 14.376C42.8842 14.376 43.2122 14.296 43.5002 14.136L43.3802 16.848C42.6282 17.472 41.7722 17.784 40.8122 17.784C38.6362 17.784 37.5482 16.872 37.5482 15.048C37.5482 14.728 37.5802 14.384 37.6442 14.016L38.2202 10.824C38.2682 10.536 38.2922 10.288 38.2922 10.08Z" fill="#302F32"/>
<path d="M55.4679 17.832C55.1159 19.864 54.3079 21.472 53.0439 22.656C51.7959 23.84 50.3639 24.432 48.7479 24.432C47.1319 24.432 45.9639 24.136 45.2439 23.544C44.5399 22.952 44.1879 22.176 44.1879 21.216C44.1879 19.808 45.0839 18.584 46.8759 17.544C45.5159 17.112 44.8359 16.08 44.8359 14.448C44.8359 14.048 44.8759 13.608 44.9559 13.128L45.4359 10.32C45.6919 8.88 46.2839 7.736 47.2119 6.888C48.1399 6.024 49.3399 5.592 50.8119 5.592C52.2999 5.592 53.3159 5.952 53.8599 6.672L54.0039 5.904H57.5799L55.4679 17.832ZM49.1319 12.6C49.0999 12.744 49.0839 12.944 49.0839 13.2C49.0839 13.456 49.2039 13.712 49.4439 13.968C49.6839 14.208 50.0839 14.328 50.6439 14.328C51.2199 14.328 51.7159 14.104 52.1319 13.656L52.8519 9.624C52.6279 9.224 52.2039 9.024 51.5799 9.024C50.9559 9.024 50.4679 9.184 50.1159 9.504C49.7639 9.824 49.5399 10.256 49.4439 10.8L49.1319 12.6ZM49.2999 21C50.3399 21 51.0199 20.056 51.3399 18.168L51.5799 16.776C49.3559 17.816 48.2439 18.864 48.2439 19.92C48.2439 20.24 48.3319 20.496 48.5079 20.688C48.6999 20.896 48.9639 21 49.2999 21Z" fill="#302F32"/>
<path d="M64.2193 17.784C61.9473 17.784 60.3793 17.256 59.5153 16.2C58.9233 15.464 58.6273 14.456 58.6273 13.176C58.6273 12.584 58.6913 11.936 58.8193 11.232L59.6593 6.432C60.4113 2.144 63.0353 0 67.5313 0C69.3873 0 70.7953 0.4 71.7553 1.2C72.7153 1.984 73.1953 3.064 73.1953 4.44C73.1953 5 73.1153 5.568 72.9553 6.144C72.8113 6.72 72.6673 7.152 72.5233 7.44L72.2833 7.872H68.0353C68.4513 7.296 68.6593 6.632 68.6593 5.88C68.6593 4.44 68.0593 3.72 66.8593 3.72C65.2433 3.72 64.2753 4.656 63.9553 6.528L63.1393 11.136C63.0593 11.568 63.0193 11.992 63.0193 12.408C63.0193 13.512 63.6673 14.064 64.9633 14.064C66.2753 14.064 67.1153 13.408 67.4833 12.096H65.5153L65.9953 9.432H72.3553L71.9713 11.496L71.8513 12.192C71.1793 15.92 68.6353 17.784 64.2193 17.784Z" fill="#302F32"/>
<path d="M83.1172 0C86.9732 0 88.9013 1.576 88.9013 4.728C88.9013 5.256 88.8453 5.824 88.7333 6.432L87.8932 11.232C87.5092 13.456 86.6772 15.104 85.3972 16.176C84.1172 17.248 82.3173 17.784 79.9973 17.784C77.6773 17.784 76.0613 17.248 75.1493 16.176C74.5253 15.44 74.2132 14.424 74.2132 13.128C74.2132 12.552 74.2773 11.92 74.4053 11.232L75.2452 6.432C75.9972 2.144 78.6212 0 83.1172 0ZM80.6452 14.064C81.4452 14.064 82.0853 13.856 82.5653 13.44C83.0453 13.024 83.3812 12.256 83.5732 11.136L84.3893 6.528C84.4373 6.208 84.4613 5.92 84.4613 5.664C84.4613 4.368 83.8052 3.72 82.4932 3.72C80.8452 3.752 79.8613 4.688 79.5413 6.528L78.7253 11.136C78.6613 11.536 78.6292 11.952 78.6292 12.384C78.6292 13.504 79.3012 14.064 80.6452 14.064Z" fill="#302F32"/>
<path d="M94.725 18.5233L86.3043 17.2171C86.0929 17.392 85.8823 17.5485 85.6726 17.6866C85.463 17.8247 85.2445 17.9531 85.0172 18.0719L94.725 18.5233Z" fill="black"/>
<path d="M98.6652 16.0456L88.3727 14.4584C88.2711 14.6569 88.1703 14.837 88.0704 14.9987L87.7681 15.539L98.6652 16.0456Z" fill="black"/>
<path d="M100.089 13.4509L89.4102 11.8181L89.0255 12.9366L100.089 13.4509Z" fill="black"/>
<path d="M100.876 10.8267L90.0604 9.15973L89.9922 9.43373L89.9215 9.76305L89.8128 10.3123L100.876 10.8267Z" fill="black"/>
<path d="M101.303 8.18573L90.4604 6.51746C90.4433 6.88623 90.3976 7.27215 90.3234 7.67522L101.303 8.18573Z" fill="black"/>
<path d="M101.067 5.51389L90.3626 3.85206L90.4475 4.41035C90.4565 4.61403 90.4747 4.81814 90.5022 5.02267L101.067 5.51389Z" fill="black"/>
<path d="M98.537 2.70767L89.0151 1.23941C89.3165 1.51212 89.5772 1.86609 89.7972 2.30132L98.537 2.70767Z" fill="black"/>
</svg>
